<svg width="54" height="26" viewBox="0 0 54 26" fill="none" xmlns="http://www.w3.org/2000/svg" xmlns:xlink="http://www.w3.org/1999/xlink">
<path d="M3.846,6.41C3.846,4.994 4.994,3.846 6.41,3.846L41.667,3.846C43.083,3.846 44.231,4.994 44.231,6.41L44.231,18.59C44.231,20.006 43.083,21.154 41.667,21.154L6.41,21.154C4.994,21.154 3.846,20.006 3.846,18.59L3.846,6.41Z" fill="#000000"/>
<g opacity="0.4">
<path d="M6.41,1.923L41.667,1.923C44.145,1.923 46.154,3.932 46.154,6.41L46.154,18.59C46.154,21.068 44.145,23.077 41.667,23.077L6.41,23.077C3.932,23.077 1.923,21.068 1.923,18.59L1.923,6.41C1.923,3.932 3.932,1.923 6.41,1.923ZM0,6.41C0,2.87 2.87,0 6.41,0L41.667,0C45.207,0 48.077,2.87 48.077,6.41L48.077,18.59C48.077,22.13 45.207,25 41.667,25L6.41,25C2.87,25 0,22.13 0,18.59L0,6.41ZM53.205,12.5C53.205,14.47 51.838,16.121 50,16.555L50,8.445C51.838,8.879 53.205,10.53 53.205,12.5Z" clip-rule="evenodd" fill-rule="evenodd" fill="#000000"/>
</g>
</svg>
