<svg width="7316" height="3894" viewBox="0 0 7316 3894" fill="none" xmlns="http://www.w3.org/2000/svg" xmlns:xlink="http://www.w3.org/1999/xlink">
<g opacity="0.5">
<path d="M2094.82,1888.212L2088.06,1893.93L2094.82,1888.212ZM3305.84,3561.34L3300.3,3568.24L3305.84,3561.34ZM2825.08,2563.14L2818.78,2569.34L2825.08,2563.14ZM653.2,2155.41L658.198,2148.104L653.2,2155.41ZM2222.72,3038.3L2229.66,3032.8L2229.66,3032.8L2222.72,3038.3ZM2916.44,1692.856L2908.6,1696.938L2916.44,1692.856ZM321.064,648.69C677.134,788.5 1529.34,1233.51 2088.06,1893.93L2101.58,1882.496C1540.274,1219.026 685.134,772.624 327.534,632.212L321.064,648.69ZM2088.06,1893.93C2437.6,2307.094 2647.3,2650.36 2816.1,2927.88C2984.72,3205.08 3113.28,3418.04 3300.3,3568.24L3311.38,3554.44C3127.28,3406.58 3000.34,3196.68 2831.22,2918.68C2662.32,2641.02 2452.06,2296.76 2101.58,1882.496L2088.06,1893.93ZM3300.3,3568.24C3598.16,3807.5 3852.52,3884.42 3943.92,3892.82L3945.54,3875.18C3858.44,3867.2 3607.28,3792.12 3311.38,3554.44L3300.3,3568.24ZM2312.24,460.558C2277.58,542.681 2255.24,678.052 2250.12,843.524C2245,1009.252 2257.14,1206.006 2292,1411.37C2361.68,1821.852 2522.36,2268.058 2818.78,2569.34L2831.4,2556.94C2538.56,2259.292 2378.84,1817.15 2309.46,1408.406C2274.78,1204.158 2262.74,1008.578 2267.82,844.07C2272.9,679.306 2295.16,546.541 2328.54,467.442L2312.24,460.558ZM2818.78,2569.34C3188.42,2945.06 3495.82,3059.76 3758.56,3134.56C4021.36,3209.38 4235.74,3243.8 4425.16,3457.56L4438.4,3445.82C4244.74,3227.28 4024.06,3191.74 3763.42,3117.54C3502.7,3043.3 3198.32,2929.88 2831.4,2556.94L2818.78,2569.34ZM-0.796,1310.692C15.926,1459.71 169.656,1835.368 648.204,2162.716L658.198,2148.104C183.058,1823.088 32.838,1451.684 16.796,1308.718L-0.796,1310.692ZM648.204,2162.716C947.298,2367.308 1237.516,2457.718 1503.018,2561.84C1768.68,2666.04 2010.28,2784.12 2215.78,3043.78L2229.66,3032.8C2021.22,2769.42 1776.078,2649.92 1509.48,2545.36C1242.724,2440.746 955.158,2351.238 658.198,2148.104L648.204,2162.716ZM2215.78,3043.78C2381.14,3252.72 2494.46,3423.66 2568.92,3552.38C2643.5,3681.32 2678.82,3767.42 2688.58,3806.74L2705.76,3802.46C2695.38,3760.7 2659.06,3672.86 2584.24,3543.52C2509.3,3413.98 2395.48,3242.32 2229.66,3032.8L2215.78,3043.78ZM116.229,2571.88C368.298,2612.4 961.568,2819.62 1315.1,3323.18L1329.588,3313.02C972.392,2804.24 373.972,2595.38 119.039,2554.4L116.229,2571.88ZM1315.1,3323.18C1672.876,3832.78 2215.78,3891.02 2443.34,3856.2L2440.66,3838.7C2217.92,3872.78 1682.542,3815.74 1329.588,3313.02L1315.1,3323.18ZM1915.536,800.72C1987.858,776.542 2126.3,789.538 2302.22,914.826C2477.88,1039.946 2689.98,1276.516 2908.6,1696.938L2924.3,1688.772C2704.88,1266.768 2491.14,1027.654 2312.48,900.408C2134.06,773.328 1989.66,757.274 1909.922,783.93L1915.536,800.72ZM2908.6,1696.938C3182.68,2224.082 3435.82,2550.58 3689.42,2771.32C3943.08,2992.1 4196.72,3106.62 4470.86,3210.42L4477.14,3193.86C4203.74,3090.34 3952.38,2976.72 3701.04,2757.96C3449.62,2539.14 3197.74,2214.666 2924.3,1688.772L2908.6,1696.938Z" fill="#FFFFFF"/>
</g>
<g opacity="0.5">
<path d="M4932.911,1426.957L4926.151,1432.675L4932.911,1426.957ZM6143.931,3100.085L6138.391,3106.985L6143.931,3100.085ZM5663.171,2101.885L5656.871,2108.085L5663.171,2101.885ZM3491.291,1694.155L3496.289,1686.849L3491.291,1694.155ZM5060.811,2577.045L5067.751,2571.545L5067.751,2571.545L5060.811,2577.045ZM5754.531,1231.601L5746.691,1235.683L5754.531,1231.601ZM3159.155,187.435C3515.225,327.245 4367.431,772.255 4926.151,1432.675L4939.671,1421.241C4378.365,757.771 3523.225,311.369 3165.625,170.958L3159.155,187.435ZM4926.151,1432.675C5275.691,1845.839 5485.391,2189.105 5654.191,2466.625C5822.811,2743.825 5951.371,2956.785 6138.391,3106.985L6149.471,3093.185C5965.371,2945.325 5838.431,2735.425 5669.311,2457.425C5500.411,2179.765 5290.151,1835.505 4939.671,1421.241L4926.151,1432.675ZM6138.391,3106.985C6436.251,3346.245 6690.611,3423.165 6782.011,3431.565L6783.631,3413.925C6696.531,3405.945 6445.371,3330.865 6149.471,3093.185L6138.391,3106.985ZM5150.331,-0.697C5115.671,81.427 5093.331,216.797 5088.211,382.269C5083.091,547.997 5095.231,744.751 5130.091,950.115C5199.771,1360.597 5360.451,1806.803 5656.871,2108.085L5669.491,2095.685C5376.651,1798.037 5216.931,1355.895 5147.551,947.151C5112.871,742.903 5100.831,547.323 5105.911,382.815C5110.991,218.051 5133.251,85.286 5166.631,6.187L5150.331,-0.697ZM5656.871,2108.085C6026.511,2483.805 6333.911,2598.505 6596.651,2673.305C6859.451,2748.125 7073.831,2782.545 7263.251,2996.305L7276.491,2984.565C7082.831,2766.025 6862.151,2730.485 6601.511,2656.285C6340.791,2582.045 6036.411,2468.625 5669.491,2095.685L5656.871,2108.085ZM2837.295,849.437C2854.016,998.455 3007.747,1374.113 3486.295,1701.461L3496.289,1686.849C3021.149,1361.833 2870.929,990.429 2854.886,847.463L2837.295,849.437ZM3486.295,1701.461C3785.389,1906.053 4075.607,1996.463 4341.109,2100.585C4606.771,2204.785 4848.371,2322.865 5053.871,2582.525L5067.751,2571.545C4859.311,2308.165 4614.169,2188.665 4347.571,2084.105C4080.815,1979.491 3793.249,1889.983 3496.289,1686.849L3486.295,1701.461ZM5053.871,2582.525C5219.231,2791.465 5332.551,2962.405 5407.011,3091.125C5481.591,3220.065 5516.911,3306.165 5526.671,3345.485L5543.851,3341.205C5533.471,3299.445 5497.151,3211.605 5422.331,3082.265C5347.391,2952.725 5233.571,2781.065 5067.751,2571.545L5053.871,2582.525ZM2954.32,2110.625C3206.389,2151.145 3799.659,2358.365 4153.191,2861.925L4167.679,2851.765C3810.483,2342.985 3212.063,2134.125 2957.129,2093.145L2954.32,2110.625ZM4153.191,2861.925C4510.967,3371.525 5053.871,3429.765 5281.431,3394.945L5278.751,3377.445C5056.011,3411.525 4520.633,3354.485 4167.679,2851.765L4153.191,2861.925ZM4753.627,339.465C4825.949,315.287 4964.391,328.283 5140.311,453.571C5315.971,578.691 5528.071,815.261 5746.691,1235.683L5762.391,1227.517C5542.971,805.513 5329.231,566.399 5150.571,439.153C4972.151,312.073 4827.751,296.019 4748.013,322.675L4753.627,339.465ZM5746.691,1235.683C6020.771,1762.827 6273.911,2089.325 6527.511,2310.065C6781.171,2530.845 7034.811,2645.365 7308.951,2749.165L7315.231,2732.605C7041.831,2629.085 6790.471,2515.465 6539.131,2296.705C6287.711,2077.885 6035.831,1753.411 5762.391,1227.517L5746.691,1235.683Z" transform="rotate(350.186 5079.091 1712.745)" fill="#FFFFFF"/>
</g>
</svg>
